HIERARCHY
ROOT Hips
{
	OFFSET 0.000000 0.000000 0.000000
	CHANNELS 6 Xposition Yposition Zposition Xrotation Yrotation Zrotation
	JOINT LeftUpLeg_virtual
	{
		OFFSET 0.000000 0.000000 0.000000
		CHANNELS 3 Xrotation Yrotation Zrotation
		JOINT LeftUpLeg
		{
			OFFSET 15.427100 -6.655098 0.678600
			CHANNELS 3 Xrotation Yrotation Zrotation
			JOINT LeftLeg
			{
				OFFSET 4.081073 -39.591068 13.024000
				CHANNELS 3 Xrotation Yrotation Zrotation
				JOINT LeftFoot
				{
					OFFSET -4.081074 -37.707932 -15.979700
					CHANNELS 3 Xrotation Yrotation Zrotation
					JOINT LeftToeBase
					{
						OFFSET 5.346399 -15.068900 20.645000
						CHANNELS 3 Xrotation Yrotation Zrotation
						JOINT LeftToe_End
						{
							OFFSET 2.754700 0.931300 11.300900
							CHANNELS 3 Xrotation Yrotation Zrotation
							End Site
							{
								OFFSET 0 0 0
							}
						}
					}
				}
			}
		}
	}
	JOINT RightUpLeg_virtual
	{
		OFFSET 0.000000 0.000000 0.000000
		CHANNELS 3 Xrotation Yrotation Zrotation
		JOINT RightUpLeg
		{
			OFFSET -15.569500 -6.655098 0.678600
			CHANNELS 3 Xrotation Yrotation Zrotation
			JOINT RightLeg
			{
				OFFSET -4.081825 -39.591045 13.023800
				CHANNELS 3 Xrotation Yrotation Zrotation
				JOINT RightFoot
				{
					OFFSET 4.081824 -37.707954 -15.979600
					CHANNELS 3 Xrotation Yrotation Zrotation
					JOINT RightToeBase
					{
						OFFSET -5.346400 -15.068900 20.645000
						CHANNELS 3 Xrotation Yrotation Zrotation
						JOINT RightToe_End
						{
							OFFSET -2.754700 0.931300 11.300900
							CHANNELS 3 Xrotation Yrotation Zrotation
							End Site
							{
								OFFSET 0 0 0
							}
						}
					}
				}
			}
		}
	}
	JOINT Spine_virtual
	{
		OFFSET 0.000000 0.000000 0.000000
		CHANNELS 3 Xrotation Yrotation Zrotation
		JOINT Spine
		{
			OFFSET -0.279200 12.230698 -2.892100
			CHANNELS 3 Xrotation Yrotation Zrotation
			JOINT Spine1
			{
				OFFSET -0.232667 10.192268 -1.242267
				CHANNELS 3 Xrotation Yrotation Zrotation
				JOINT Spine1_split
				{
					OFFSET -0.232667 10.192268 -1.242267
					CHANNELS 3 Xrotation Yrotation Zrotation
					JOINT Spine2
					{
						OFFSET -0.232667 10.192268 -1.242267
						CHANNELS 3 Xrotation Yrotation Zrotation
						JOINT Neck_virtual
						{
							OFFSET 0.000000 0.000000 0.000000
							CHANNELS 3 Xrotation Yrotation Zrotation
							JOINT Neck
							{
								OFFSET -0.418800 17.814194 8.416900
								CHANNELS 3 Xrotation Yrotation Zrotation
								JOINT Head
								{
									OFFSET 0.000000 7.031097 3.806800
									CHANNELS 3 Xrotation Yrotation Zrotation
									JOINT HeadTop_End
									{
										OFFSET 0.000000 24.646606 12.978600
										CHANNELS 3 Xrotation Yrotation Zrotation
										End Site
										{
											OFFSET 0 0 0
										}
									}
								}
							}
						}
						JOINT LeftShoulder_virtual
						{
							OFFSET 0.000000 0.000000 0.000000
							CHANNELS 3 Xrotation Yrotation Zrotation
							JOINT LeftShoulder
							{
								OFFSET 8.476499 7.247704 -3.868750
								CHANNELS 3 Xrotation Yrotation Zrotation
								JOINT LeftShoulder_split
								{
									OFFSET 8.476499 7.247704 -3.868750
									CHANNELS 3 Xrotation Yrotation Zrotation
									JOINT LeftArm
									{
										OFFSET 9.308998 -2.777710 0.208600
										CHANNELS 3 Xrotation Yrotation Zrotation
										JOINT LeftForeArm
										{
											OFFSET 29.972298 0.000000 0.000000
											CHANNELS 3 Xrotation Yrotation Zrotation
											JOINT LeftHand
											{
												OFFSET 26.026505 0.000000 0.000000
												CHANNELS 3 Xrotation Yrotation Zrotation
												End Site
												{
													OFFSET 0 0 0
												}
											}
										}
									}
								}
							}
						}
						JOINT RightShoulder_virtual
						{
							OFFSET 0.000000 0.000000 0.000000
							CHANNELS 3 Xrotation Yrotation Zrotation
							JOINT RightShoulder
							{
								OFFSET -7.570500 7.247704 -3.868750
								CHANNELS 3 Xrotation Yrotation Zrotation
								JOINT RightShoulder_split
								{
									OFFSET -7.570500 7.247704 -3.868750
									CHANNELS 3 Xrotation Yrotation Zrotation
									JOINT RightArm
									{
										OFFSET -9.308998 -2.777710 0.208500
										CHANNELS 3 Xrotation Yrotation Zrotation
										JOINT RightForeArm
										{
											OFFSET -29.972300 0.000000 0.000000
											CHANNELS 3 Xrotation Yrotation Zrotation
											JOINT RightHand
											{
												OFFSET -26.026505 0.000000 0.000000
												CHANNELS 3 Xrotation Yrotation Zrotation
												End Site
												{
													OFFSET 0 0 0
												}
											}
										}
									}
								}
							}
						}
					}
				}
			}
		}
	}
}
MOTION
Frames: 5
Frame Time: 0.03333333
9.680069 69.369995 -14.820410 0.000000 0.000000 0.000000 8.400197 -77.386460 13.211611 -27.010762 -10.558030 28.225436 46.909186 -17.485750 3.485848 -6.260098 5.039585 -27.066563 -17.037787 -1.873474 -2.174110 0.000000 0.000000 0.000000 8.397573 -75.988300 13.378589 -16.272364 3.371928 -39.281644 43.649622 23.482148 -3.214208 -20.850916 -17.431647 44.566575 1.448599 10.831538 -27.616297 0.000000 0.000000 0.000000 5.385675 -74.483541 8.372613 0.185355 5.424317 4.277998 5.308415 2.621545 1.550609 0.292613 -0.261260 0.077955 0.000000 0.000000 0.000000 6.424300 4.105969 1.878340 -7.621615 11.270846 0.289515 -5.915977 9.765078 -8.594244 0.000000 0.000000 0.000000 4.405611 3.489050 0.914234 0.529202 8.821876 -3.262332 -2.406375 -1.089239 -0.957026 -14.016587 10.435696 -64.270851 161.652655 -65.264957 154.824747 0.000000 0.000000 0.000000 7.193326 3.703635 0.641926 -6.479115 3.071644 4.515320 -2.240777 1.564350 7.282822 -13.190634 40.729347 54.127142 -176.524135 65.614581 -176.334693 0.000000 0.000000 0.000000 
9.615209 68.684937 -14.467031 0.000000 0.000000 0.000000 2.933317 -77.236005 7.442668 -28.275484 -10.480435 29.392623 48.054896 -18.219618 4.850075 -8.690263 3.168533 -25.942981 -15.864706 -1.849289 -2.765404 0.000000 0.000000 0.000000 5.990515 -75.756504 9.926464 -14.170682 -0.248804 -37.713863 42.240393 20.995245 -2.930972 -26.490764 -19.850761 36.291927 -0.476759 12.702472 -28.763446 0.000000 0.000000 0.000000 1.649561 -74.524665 4.291257 -0.442882 5.658443 4.535739 5.304946 2.961609 1.896631 0.272203 -0.553995 0.094101 0.000000 0.000000 0.000000 6.936114 4.470647 2.071487 -8.033341 11.134250 0.134296 -4.468145 10.501142 -9.367429 0.000000 0.000000 0.000000 4.939830 3.727032 1.202220 -0.072963 8.344971 -2.944255 -0.976871 -0.153759 -1.614364 -12.251373 8.150336 -65.246769 160.897264 -63.979680 154.504835 0.000000 0.000000 0.000000 7.435804 4.031794 0.975630 -6.724264 1.377692 3.846289 -2.682271 1.572376 7.598851 -12.816049 40.823125 53.802179 -176.342357 64.718003 -176.066772 0.000000 0.000000 0.000000 
9.437304 70.827408 -14.231260 0.000000 0.000000 0.000000 0.839439 -75.361903 4.881357 -30.300901 -10.274383 28.953910 45.326600 -19.714470 5.655919 -7.226059 0.098784 -27.589280 -12.864037 -1.967053 -2.856176 0.000000 0.000000 0.000000 4.179099 -73.702235 7.591184 -14.565968 -1.884036 -37.540134 42.249655 21.203795 -1.921674 -20.217701 -17.514678 35.024534 -6.715874 14.204785 -26.581356 0.000000 0.000000 0.000000 -1.272885 -72.644499 1.213137 -1.252993 5.601821 4.466564 5.076608 2.992429 2.012156 0.121210 -0.870647 0.059162 0.000000 0.000000 0.000000 7.117522 4.544338 2.101818 -8.183711 10.952395 -0.092984 -2.903269 10.838214 -9.749255 0.000000 0.000000 0.000000 5.180215 3.678514 1.326669 -0.597450 7.609596 -2.302360 0.758011 0.384036 -1.682977 -11.100596 4.632520 -64.787315 161.493416 -62.599244 155.626571 0.000000 0.000000 0.000000 7.405294 3.998681 1.136475 -6.919877 0.174251 3.114727 -2.769745 1.703192 7.595187 -10.748506 39.953543 52.567660 -176.343914 62.832618 -175.931453 0.000000 0.000000 0.000000 
9.174652 75.517418 -14.161722 0.000000 0.000000 0.000000 0.583107 -71.426635 3.935254 -31.996844 -9.667737 27.014626 39.057812 -20.858110 5.316165 -1.913925 -3.489229 -30.473302 -11.928070 -2.263049 -2.156242 0.000000 0.000000 0.000000 1.777090 -69.995137 5.173927 -18.072411 -0.566440 -39.615206 44.294337 24.852977 -0.413275 -3.476034 -9.394884 38.875285 -8.938320 12.925130 -21.398916 0.000000 0.000000 0.000000 -2.424251 -69.045645 -0.132313 -1.867151 5.254947 4.192606 4.729897 2.707177 1.946079 -0.060327 -1.005928 0.065785 0.000000 0.000000 0.000000 6.814452 4.289242 2.014104 -8.051897 10.741562 -0.340055 -1.582011 10.752450 -9.584728 0.000000 0.000000 0.000000 5.054229 3.341270 1.320464 -0.968584 6.737094 -1.717045 2.265603 0.479142 -1.180432 -10.492383 0.709647 -63.366274 163.179571 -61.342380 157.926609 0.000000 0.000000 0.000000 7.146165 3.620705 1.126904 -7.057650 -0.409380 2.341258 -2.668129 1.601009 7.234919 -7.445770 38.066782 50.451732 -176.729861 60.270190 -175.798045 0.000000 0.000000 0.000000 
8.843149 81.541328 -14.149374 0.000000 0.000000 0.000000 1.102810 -66.014694 3.545425 -32.980794 -8.458504 24.132052 32.384352 -19.901641 4.491694 5.141050 -5.557630 -31.543887 -12.382422 -2.577554 -1.654493 0.000000 0.000000 0.000000 1.535615 -64.303991 4.202849 -20.744845 1.257355 -40.057523 43.892841 27.075659 0.936128 10.633193 -2.153107 37.554655 -9.671067 10.587429 -16.249554 0.000000 0.000000 0.000000 -2.412448 -64.186990 -0.383499 -2.208486 4.693790 3.960244 4.439269 2.175748 1.815702 -0.178134 -0.983813 0.056482 0.000000 0.000000 0.000000 6.019046 3.762133 1.863838 -7.634445 10.475340 -0.603261 -1.002394 10.621005 -8.944009 0.000000 0.000000 0.000000 4.688490 2.776400 1.233709 -1.111251 5.758695 -1.576954 3.305471 0.494105 -0.653949 -10.087255 -2.803762 -61.672203 165.822417 -60.279438 161.168654 0.000000 0.000000 0.000000 6.761144 3.040726 1.028500 -7.151353 -0.353117 1.666362 -2.542922 1.330564 6.727490 -4.016172 35.136009 47.891934 -177.423439 57.797559 -175.713583 0.000000 0.000000 0.000000 
